<?xml version="1.0" standalone="no"?>
<!DOCTYPE svg PUBLIC "-//W3C//DTD SVG 20010904//EN"
 "http://www.w3.org/TR/2001/REC-SVG-20010904/DTD/svg10.dtd">
<svg version="1.0" xmlns="http://www.w3.org/2000/svg"
 width="50.000000pt" height="50.000000pt" viewBox="0 0 50.000000 50.000000"
 preserveAspectRatio="xMidYMid meet">

<g transform="translate(0.000000,50.000000) scale(0.100000,-0.100000)"
fill="#000000" stroke="none">
<path d="M64 354 c-84 -41 -83 -159 2 -199 46 -22 322 -22 368 0 86 41 86 159
0 200 -46 21 -326 21 -370 -1z m88 -61 c34 -31 11 -93 -35 -93 -27 0 -57 28
-57 53 0 48 56 73 92 40z m178 -38 c0 -25 -4 -45 -10 -45 -5 0 -10 7 -10 15 0
8 -4 15 -10 15 -5 0 -10 -7 -10 -15 0 -8 -4 -15 -10 -15 -5 0 -10 20 -10 45 0
43 1 45 30 45 29 0 30 -2 30 -45z m78 0 c-1 -48 -10 -56 -27 -27 -10 16 -10
16 -11 0 0 -10 -4 -18 -10 -18 -5 0 -10 20 -10 45 0 43 1 45 30 45 29 0 30 -1
28 -45z"/>
<path d="M290 270 c0 -5 5 -10 10 -10 6 0 10 5 10 10 0 6 -4 10 -10 10 -5 0
-10 -4 -10 -10z"/>
<path d="M370 270 c0 -5 5 -10 10 -10 6 0 10 5 10 10 0 6 -4 10 -10 10 -5 0
-10 -4 -10 -10z"/>
</g>
</svg>
