<?xml version="1.0" standalone="no"?>
<!DOCTYPE svg PUBLIC "-//W3C//DTD SVG 20010904//EN"
 "http://www.w3.org/TR/2001/REC-SVG-20010904/DTD/svg10.dtd">
<svg version="1.0" xmlns="http://www.w3.org/2000/svg"
 width="184.136" height="46.36" viewBox="0 0 1280.000000 266.000000"
 preserveAspectRatio="xMidYMid meet">

<g transform="translate(0.000000,266.000000) scale(0.100000,-0.100000)"
fill="#000000" stroke="none">
<path d="M1270 2637 c-134 -45 -236 -136 -297 -263 -33 -70 -59 -183 -48 -212
9 -24 111 -11 179 22 137 67 243 216 267 374 17 112 10 117 -101 79z"/>
<path d="M1205 2101 c-33 -10 -97 -32 -143 -50 -46 -17 -98 -31 -116 -31 -17
0 -90 20 -161 45 -110 38 -142 45 -206 45 -252 0 -469 -189 -535 -465 -36
-153 -18 -378 48 -585 77 -240 265 -522 394 -592 91 -49 139 -45 328 22 82 30
97 32 180 28 75 -4 108 -12 186 -43 84 -33 102 -37 165 -33 41 2 87 12 110 23
93 44 234 225 324 416 70 149 70 138 2 178 -183 105 -279 331 -226 534 25 96
62 157 147 240 l79 77 -58 59 c-130 130 -343 184 -518 132z"/>
<path d="M2600 1280 l0 -840 313 0 c172 0 351 5 397 10 193 23 325 84 446 205
151 150 224 353 224 621 0 190 -38 360 -112 491 -46 84 -177 211 -263 255
-154 80 -281 98 -702 98 l-303 0 0 -840z m736 590 c97 -25 171 -68 234 -138
99 -107 141 -243 141 -452 0 -213 -43 -347 -146 -458 -64 -70 -127 -106 -231
-132 -64 -17 -111 -20 -276 -20 l-198 0 0 610 0 610 198 0 c167 0 212 -3 278
-20z"/>
<path d="M7790 1280 l0 -840 125 0 125 0 0 840 0 840 -125 0 -125 0 0 -840z"/>
<path d="M4595 1674 c-125 -20 -232 -74 -313 -158 -113 -118 -164 -260 -164
-466 -1 -85 5 -146 16 -190 74 -291 286 -443 595 -427 159 8 286 60 379 156
47 48 102 150 102 189 0 22 -2 22 -114 22 l-113 0 -29 -45 c-52 -83 -132 -120
-259 -120 -72 0 -100 5 -141 23 -103 47 -172 149 -182 269 l-5 63 433 0 433 0
-6 113 c-9 193 -58 319 -162 423 -96 97 -203 141 -355 148 -47 3 -98 2 -115 0z
m192 -217 c68 -25 120 -73 151 -139 17 -34 34 -82 37 -105 l7 -43 -307 0 -308
0 7 39 c18 117 89 204 201 248 39 15 171 15 212 0z"/>
<path d="M6965 1674 c-11 -2 -45 -9 -75 -15 -157 -32 -299 -156 -365 -318 -56
-136 -68 -348 -30 -496 40 -156 135 -281 265 -349 166 -88 409 -88 581 0 104
52 206 175 225 272 l7 32 -121 0 -120 0 -11 -29 c-17 -41 -68 -86 -126 -113
-40 -18 -67 -23 -140 -23 -56 0 -103 6 -125 14 -120 50 -185 142 -204 289 l-7
52 437 0 437 0 -6 105 c-13 237 -89 395 -238 494 -34 23 -91 50 -127 61 -63
20 -215 34 -257 24z m200 -228 c89 -41 149 -128 169 -243 l6 -33 -307 0 -306
0 6 45 c15 109 104 214 207 246 14 4 59 8 100 8 59 1 86 -4 125 -23z"/>
<path d="M8698 1670 c-239 -43 -399 -198 -452 -437 -20 -90 -21 -265 -1 -358
8 -38 33 -108 56 -154 93 -190 269 -291 504 -291 291 0 498 163 560 439 23
105 21 284 -4 382 -53 207 -191 353 -382 405 -68 18 -219 26 -281 14z m209
-215 c63 -19 130 -77 166 -144 72 -131 74 -367 6 -509 -59 -121 -187 -184
-326 -162 -106 17 -177 73 -225 175 -75 162 -54 430 43 548 78 95 207 130 336
92z"/>
<path d="M10122 1668 c-113 -13 -250 -95 -303 -183 l-19 -30 0 103 0 102 -120
0 -120 0 0 -810 0 -810 125 0 125 0 0 302 0 301 28 -39 c101 -139 280 -201
464 -163 183 38 323 184 379 396 30 110 30 316 0 426 -77 290 -280 437 -559
405z m149 -245 c101 -56 162 -171 176 -328 23 -278 -150 -488 -370 -447 -164
31 -256 159 -265 373 -5 120 7 188 44 263 62 124 153 179 285 173 62 -3 86 -9
130 -34z"/>
<path d="M11293 1670 c-223 -40 -385 -202 -437 -437 -20 -90 -21 -274 -1 -366
33 -156 137 -303 262 -370 161 -86 413 -89 576 -6 121 61 199 148 231 257 l15
52 -118 0 -117 0 -34 -52 c-27 -40 -49 -60 -94 -83 -54 -27 -69 -30 -155 -30
-85 0 -103 3 -153 28 -77 38 -133 103 -158 185 -11 35 -20 82 -20 103 l0 39
430 0 430 0 0 84 c0 297 -139 509 -380 580 -68 20 -208 28 -277 16z m219 -216
c94 -31 167 -126 183 -236 l7 -48 -307 0 -307 0 7 38 c9 51 46 130 79 169 15
17 54 46 88 62 51 26 73 31 133 31 39 0 92 -7 117 -16z"/>
<path d="M12617 1670 c-102 -18 -177 -75 -221 -169 l-21 -46 -3 103 -3 102
-119 0 -120 0 2 -607 3 -608 123 -3 122 -3 0 353 c0 378 8 468 43 532 50 90
162 138 279 119 l58 -10 0 119 0 118 -27 0 c-16 0 -37 2 -48 4 -11 2 -41 0
-68 -4z"/>
<path d="M5290 1658 c0 -2 99 -275 219 -608 l219 -605 136 -3 c75 -1 136 -1
136 1 0 2 97 274 215 603 118 329 215 602 215 606 0 5 -58 8 -130 8 -71 0
-130 -2 -130 -5 0 -3 -208 -669 -292 -934 -7 -24 -13 -30 -18 -20 -4 8 -74
227 -155 487 l-148 472 -134 0 c-73 0 -133 -1 -133 -2z"/>
</g>
</svg>
