<?xml version="1.0" standalone="no"?>
<!DOCTYPE svg PUBLIC "-//W3C//DTD SVG 20010904//EN"
 "http://www.w3.org/TR/2001/REC-SVG-20010904/DTD/svg10.dtd">
<svg version="1.0" xmlns="http://www.w3.org/2000/svg"
 width="50.000000pt" height="50.000000pt" viewBox="0 0 50.000000 50.000000"
 preserveAspectRatio="xMidYMid meet">

<g transform="translate(0.000000,50.000000) scale(0.100000,-0.100000)"
fill="#000000" stroke="none">
<path d="M182 472 c2 -5 28 -37 59 -70 l56 -62 76 0 77 0 0 -65 c0 -37 4 -65
10 -65 6 0 10 28 10 64 0 42 4 66 12 69 8 3 -12 31 -52 71 l-64 66 -94 0 c-52
0 -92 -4 -90 -8z"/>
<path d="M190 391 c-10 -19 -6 -28 30 -71 l42 -50 79 0 c78 0 79 0 79 25 0 24
-3 25 -62 25 -61 0 -64 1 -109 46 -46 45 -47 46 -59 25z"/>
<path d="M44 357 c-2 -7 -3 -71 -2 -143 l3 -129 185 0 185 0 3 83 c2 52 -1 82
-8 82 -6 0 -10 -24 -10 -55 l0 -55 -170 0 -170 0 0 105 0 105 50 0 c28 0 50 5
50 10 0 15 -110 13 -116 -3z m196 -247 c0 -5 -4 -10 -10 -10 -5 0 -10 5 -10
10 0 6 5 10 10 10 6 0 10 -4 10 -10z"/>
<path d="M446 181 c-7 -11 3 -41 14 -41 11 0 21 30 14 41 -3 5 -9 9 -14 9 -5
0 -11 -4 -14 -9z"/>
<path d="M173 46 c-40 -19 -25 -26 57 -26 84 0 97 7 53 28 -32 14 -79 14 -110
-2z"/>
</g>
</svg>
