<?xml version="1.0" standalone="no"?>
<!DOCTYPE svg PUBLIC "-//W3C//DTD SVG 20010904//EN"
 "http://www.w3.org/TR/2001/REC-SVG-20010904/DTD/svg10.dtd">
<svg version="1.0" xmlns="http://www.w3.org/2000/svg"
 width="50.000000pt" height="50.000000pt" viewBox="0 0 50.000000 50.000000"
 preserveAspectRatio="xMidYMid meet">

<g transform="translate(0.000000,50.000000) scale(0.100000,-0.100000)"
fill="#000000" stroke="none">
<path d="M155 456 c-60 -28 -87 -56 -114 -116 -36 -79 -19 -183 42 -249 33
-36 115 -71 167 -71 52 0 134 35 167 71 34 37 63 110 63 159 0 52 -35 134 -71
167 -37 34 -110 63 -159 63 -27 0 -65 -10 -95 -24z m209 -33 c38 -27 86 -85
86 -104 0 -19 -20 -7 -35 20 -18 36 -55 33 -55 -5 0 -13 -4 -24 -10 -24 -5 0
-10 10 -10 21 0 17 -4 20 -22 15 -13 -3 -31 -6 -40 -6 -10 0 -18 -7 -18 -15 0
-8 -4 -15 -10 -15 -5 0 -10 7 -10 15 0 8 -8 15 -17 15 -10 0 -28 3 -40 6 -19
5 -23 2 -23 -15 0 -11 -4 -21 -10 -21 -5 0 -10 11 -10 24 0 38 -37 41 -55 5
-14 -27 -35 -40 -35 -21 0 35 83 115 137 132 51 17 133 4 177 -27z m-293 -164
l6 -24 8 28 c4 15 13 27 20 27 7 0 18 -12 23 -27 l10 -28 7 28 c7 25 25 39 25
18 0 -19 -23 -71 -31 -71 -5 0 -15 12 -21 28 l-11 27 -10 -27 c-13 -34 -33
-36 -41 -4 -3 13 -9 32 -13 41 -4 13 -2 16 8 13 7 -2 16 -15 20 -29z m139 11
c0 -11 4 -20 9 -20 5 0 11 9 14 20 3 11 10 20 17 20 7 0 14 -9 17 -20 3 -11 9
-20 14 -20 5 0 9 9 9 20 0 11 7 20 14 20 13 0 13 -5 2 -37 -15 -45 -33 -53
-42 -19 -3 14 -10 26 -14 26 -4 0 -11 -12 -14 -26 -9 -34 -27 -26 -42 19 -11
32 -11 37 2 37 7 0 14 -9 14 -20z m145 -7 l7 -28 10 28 c5 15 16 27 23 27 7 0
16 -12 20 -27 l7 -28 10 28 c5 15 14 27 20 27 6 0 7 -7 4 -16 -3 -9 -9 -27
-12 -40 -8 -32 -30 -30 -42 4 l-10 27 -11 -27 c-6 -16 -15 -28 -20 -28 -8 0
-31 52 -31 71 0 21 18 7 25 -18z m-270 -102 c18 -36 55 -33 55 5 0 13 5 24 10
24 6 0 10 -10 10 -21 0 -17 4 -20 23 -15 12 3 30 6 40 6 9 0 17 7 17 15 0 8 5
15 10 15 6 0 10 -7 10 -15 0 -8 8 -15 18 -15 9 0 27 -3 40 -6 18 -5 22 -2 22
15 0 11 5 21 10 21 6 0 10 -11 10 -24 0 -38 37 -41 55 -5 15 27 35 39 35 21 0
-20 -61 -91 -97 -113 -30 -19 -52 -24 -105 -24 -58 0 -72 4 -109 30 -41 29
-89 87 -89 106 0 19 20 7 35 -20z"/>
<path d="M204 415 c-30 -31 -27 -49 9 -53 25 -3 27 -1 27 37 0 23 -2 41 -5 41
-3 0 -17 -11 -31 -25z"/>
<path d="M260 400 c0 -36 3 -40 24 -40 14 0 28 4 31 10 8 13 -11 47 -35 60
-18 10 -20 7 -20 -30z"/>
<path d="M140 402 c-20 -16 -21 -20 -7 -25 10 -4 21 3 31 19 19 28 7 31 -24 6z"/>
<path d="M336 396 c10 -16 21 -23 31 -19 14 5 13 9 -7 25 -31 25 -43 22 -24
-6z"/>
<path d="M185 130 c-8 -13 11 -47 35 -60 18 -10 20 -7 20 30 0 36 -3 40 -24
40 -14 0 -28 -4 -31 -10z"/>
<path d="M260 100 c0 -37 2 -40 20 -30 24 13 43 47 35 60 -3 6 -17 10 -31 10
-21 0 -24 -4 -24 -40z"/>
<path d="M131 121 c-11 -7 -8 -13 13 -26 33 -22 40 -17 18 12 -12 15 -21 20
-31 14z"/>
<path d="M336 104 c-19 -28 -7 -31 24 -6 20 16 21 20 7 25 -10 4 -21 -3 -31
-19z"/>
</g>
</svg>
